HIERARCHY
ROOT Hips
{
	OFFSET -3.958830 18.904000 13.208200
	CHANNELS 6 Xposition Yposition Zposition Zrotation Yrotation Xrotation 
	JOINT LHipJoint
	{
		OFFSET 0.000000 0.000000 0.000000
		CHANNELS 3 Zrotation Yrotation Xrotation
		JOINT LeftUpLeg
		{
			OFFSET 1.800000 -1.400000 0.085000
			CHANNELS 3 Zrotation Yrotation Xrotation
			JOINT LeftLeg
			{
				OFFSET 2.215000 -6.000000 0.000000
				CHANNELS 3 Zrotation Yrotation Xrotation
				JOINT LeftFoot
				{
					OFFSET 2.500000 -6.900000 0.000000
					CHANNELS 3 Zrotation Yrotation Xrotation
					JOINT LeftToeBase
					{
						OFFSET 0.200000 -0.500000 1.950000
						CHANNELS 3 Zrotation Yrotation Xrotation
						End Site
						{
							OFFSET 0.000000 0.000000 0.000000
						}
					}
				}
			}
		}
	}
	JOINT RHipJoint
	{
		OFFSET 0.000000 0.000000 0.000000
		CHANNELS 3 Zrotation Yrotation Xrotation
		JOINT RightUpLeg
		{
			OFFSET -1.800000 -1.400000 0.085000
			CHANNELS 3 Zrotation Yrotation Xrotation
			JOINT RightLeg
			{
				OFFSET -2.215000 -6.000000 0.000000
				CHANNELS 3 Zrotation Yrotation Xrotation
				JOINT RightFoot
				{
					OFFSET -2.500000 -6.900000 0.000000
					CHANNELS 3 Zrotation Yrotation Xrotation
					JOINT RightToeBase
					{
						OFFSET -0.200000 -0.500000 1.950000
						CHANNELS 3 Zrotation Yrotation Xrotation
						End Site
						{
							OFFSET 0.000000 0.000000 0.000000
						}
					}
				}
			}
		}
	}
	JOINT LowerBack
	{
		OFFSET 0.000000 0.000000 0.000000
		CHANNELS 3 Zrotation Yrotation Xrotation
		JOINT Spine
		{
			OFFSET -0.087000 1.940000 -0.288900
			CHANNELS 3 Zrotation Yrotation Xrotation
			JOINT Spine1
			{
				OFFSET 0.000000 1.950000 0.060000
				CHANNELS 3 Zrotation Yrotation Xrotation
				JOINT Neck
				{
					OFFSET 0.000000 0.000000 0.000000
					CHANNELS 3 Zrotation Yrotation Xrotation
					JOINT Neck1
					{
						OFFSET 0.000000 1.600000 0.340000
						CHANNELS 3 Zrotation Yrotation Xrotation
						JOINT Head
						{
							OFFSET 0.000000 1.667000 -0.240000
							CHANNELS 3 Zrotation Yrotation Xrotation
							End Site
							{
								OFFSET 0.000000 0.000000 0.000000
							}
						}
					}
				}
				JOINT LeftShoulder
				{
					OFFSET 0.000000 0.000000 0.000000
					CHANNELS 3 Zrotation Yrotation Xrotation
					JOINT LeftArm
					{
						OFFSET 2.700000 1.550000 -0.730000
						CHANNELS 3 Zrotation Yrotation Xrotation
						JOINT LeftForeArm
						{
							OFFSET 5.450000 0.000000 0.000000
							CHANNELS 3 Zrotation Yrotation Xrotation
							JOINT LeftHand
							{
								OFFSET 3.450000 0.000000 0.000000
								CHANNELS 3 Zrotation Yrotation Xrotation
								JOINT LeftHandIndex1
								{
									OFFSET 0.750000 0.000000 0.000000
									CHANNELS 3 Zrotation Yrotation Xrotation
									End Site
									{
										OFFSET 0.000000 0.000000 0.000000
									}
								}
							}
						}
					}
				}
				JOINT RightShoulder
				{
					OFFSET 0.000000 0.000000 0.000000
					CHANNELS 3 Zrotation Yrotation Xrotation
					JOINT RightArm
					{
						OFFSET -2.700000 1.550000 -0.730000
						CHANNELS 3 Zrotation Yrotation Xrotation
						JOINT RightForeArm
						{
							OFFSET -5.450000 0.000000 0.000000
							CHANNELS 3 Zrotation Yrotation Xrotation
							JOINT RightHand
							{
								OFFSET -3.450000 0.000000 0.000000
								CHANNELS 3 Zrotation Yrotation Xrotation
								JOINT RightHandIndex1
								{
									OFFSET -0.750000 0.000000 0.000000
									CHANNELS 3 Zrotation Yrotation Xrotation
									End Site
									{
										OFFSET 0.000000 0.000000 0.000000
									}
								}
							}
						}
					}
				}
			}
		}
	}
}
MOTION
Frames: 7
Frame Time: 0.016667
-0.973750 16.637140 -3.977450 -1.109937 -2.075626 -10.137182 -15.587329 14.041955 3.644414 -0.090381 -1.694278 27.462363 -3.843746 10.198467 32.764624 0.454973 9.995862 1.534681 0.009400 -0.565660 -0.098230 18.068397 -8.430110 3.888363 10.827077 5.216725 -50.107117 -8.788238 -3.628217 40.069893 -0.729966 -4.589340 2.515876 -0.314030 0.840860 0.782690 -2.695771 -6.409757 -8.358438 3.776652 -15.382269 53.831836 0.800755 -15.506651 5.255798 0.263114 -8.210697 -9.930510 -21.659939 8.600432 39.417375 -3.792970 0.382060 -27.402000 -9.438391 -14.823267 1.269146 29.739587 6.990765 -7.022139 85.869320 -25.995787 -21.760085 -4.494133 2.459240 1.322180 0.147820 0.262070 0.337770 10.381117 15.061943 6.954504 -3.939118 -13.486681 -14.867949 -80.740889 19.954336 -17.078549 2.118489 -1.430784 -0.515180 0.573310 0.500800 -0.045060 
-1.000900 16.479160 -3.968790 -1.644165 -1.681874 -11.570751 -15.657938 14.154193 3.644669 0.993486 -2.285496 29.724517 -3.591840 10.511139 33.318060 0.485449 10.304807 1.472950 -0.053850 -0.678170 -0.075640 18.007018 -8.194437 3.991983 10.653288 5.863828 -50.522715 -8.861333 -3.771261 43.315167 -0.799062 -5.079657 2.369247 -0.351610 0.865950 0.674750 -2.518862 -6.912393 -8.417416 4.162337 -15.125266 55.665163 2.034800 -14.689589 4.386797 0.530789 -9.033015 -10.276380 -25.054349 9.476321 41.488886 -2.269560 -0.682100 -25.751790 -9.941856 -15.249873 1.427082 33.151240 6.714151 -6.186532 81.938981 -21.303314 -16.197936 -4.550068 2.317595 1.388290 0.105340 0.228940 0.310380 10.343704 16.451374 7.211572 -10.532062 -20.677477 -13.294634 -81.456799 15.623066 -12.876898 2.299113 -1.342192 -0.622610 0.676340 0.523280 -0.078070 
-1.068430 16.262850 -3.998830 -1.165861 -2.782492 -15.893804 -15.789111 14.170281 3.764846 1.875905 -1.915024 35.176408 -4.813996 11.768498 33.169784 0.540665 11.172041 1.232588 -0.243230 -0.985960 -0.074680 17.917129 -7.845473 4.057332 9.371126 7.156719 -48.515173 -7.469786 -4.263589 48.317016 -0.846966 -6.065487 2.016500 -0.425130 1.027640 0.686090 -2.208193 -7.445124 -8.563425 1.238723 -11.973912 62.471749 3.309782 -12.954932 3.834584 0.155000 -7.430326 -8.898772 -19.895517 7.986307 38.739297 -5.290520 0.570960 -18.891700 -8.875058 -14.526858 0.839231 40.315578 9.707944 -4.260895 77.654943 -15.374227 -10.543830 -4.881626 2.236355 1.347870 0.265310 0.066130 0.203990 9.753141 15.215337 6.059482 -13.114009 -25.984987 -12.631332 -86.750067 10.530631 -9.660116 2.364160 -1.365531 -0.778340 0.713230 0.684700 -0.157210 
-1.108420 16.110250 -4.039830 -1.409824 -1.560120 -19.026922 -15.858817 14.298057 3.766664 3.562728 -2.534211 38.521597 -4.811597 12.298192 33.947845 0.716805 11.607183 1.106541 -0.182100 -0.919170 -0.059460 17.845599 -7.719115 4.003855 7.059003 7.346893 -46.969261 -4.212984 -5.782602 51.287375 -0.943225 -6.863664 1.695898 -0.376110 1.060890 0.802370 -2.026016 -7.864139 -8.522226 0.292626 -10.887670 67.906761 4.588394 -12.579033 2.682437 -0.580623 -6.567718 -7.020260 -16.408719 6.676637 33.435429 -6.295030 1.025740 -14.179880 -7.519067 -11.652984 -0.189912 43.181754 9.438384 -3.973140 77.755538 -9.439931 -6.980050 -4.986501 2.493305 1.161400 0.376260 0.006240 0.233970 9.876895 11.797838 3.686888 -14.589519 -28.507001 -11.921068 -94.791469 8.765580 -9.570424 2.452896 -1.652745 -0.676310 0.555160 0.640530 -0.114670 
-1.105120 16.037220 -4.049210 -2.889153 -1.411348 -18.403685 -15.680650 13.906134 3.551485 4.745686 -2.699948 38.290019 -4.502032 12.267012 34.164290 0.805545 11.530490 1.172412 -0.190950 -0.840140 -0.272260 18.036265 -7.760752 4.376653 6.086288 9.083291 -48.581199 -1.373155 -6.980784 52.699755 -0.990175 -7.318381 1.634156 -0.344260 1.210900 0.795810 -2.531260 -6.831388 -8.543286 4.037843 -13.577235 67.540527 2.298268 -13.732852 1.240526 -1.546511 -7.381182 -7.186773 -17.575664 8.135703 32.770801 0.282390 -0.447090 -10.233990 -6.004111 -11.229646 0.369117 42.592091 11.117152 -3.461798 82.642463 -5.768928 -4.749096 -4.982235 2.590546 1.030400 0.452400 -0.069450 0.344660 10.522885 10.884294 2.979216 -14.076411 -29.863373 -11.665940 -105.583675 9.779736 -12.963114 2.419288 -1.749115 -0.626690 0.571690 0.634590 0.016680 
-1.075440 16.067700 -3.995730 -4.807905 -1.386194 -14.295131 -15.399093 13.362906 3.209610 4.978624 -2.421453 34.845755 -2.576897 11.009541 33.347340 0.750935 10.812121 1.454730 -0.175420 -0.725120 -0.413030 18.341968 -7.967339 4.795330 5.453874 10.682422 -51.668339 1.602160 -8.002870 50.687305 -0.965170 -7.038894 1.835686 -0.322220 1.296500 0.683430 -3.344176 -5.223093 -8.512217 10.882318 -18.163694 59.479127 -2.288787 -15.604491 2.993102 -1.532818 -9.553629 -9.239363 -23.696965 10.753234 36.465351 6.690360 -2.541780 -8.124820 -4.687129 -12.277105 2.108066 34.785849 13.116182 -4.614394 93.949534 -4.372712 -4.679531 -4.816295 2.565682 1.017550 0.415870 -0.057090 0.473540 9.282024 12.269677 4.414538 -9.416136 -29.195634 -12.777187 -117.706787 12.370600 -22.073664 2.287364 -1.760658 -0.622700 0.704160 0.567070 0.133560 
-1.099240 16.228040 -3.955870 -5.769847 -0.299472 -13.102050 -15.266008 13.317812 3.078341 6.266846 -2.393453 33.792644 -0.953119 10.051720 30.991809 0.641188 10.371278 1.632831 -0.302600 -0.899620 -0.483400 18.435075 -8.300014 4.660232 4.914089 10.257315 -49.526801 3.938165 -8.386556 46.228242 -0.745443 -6.322684 2.113799 -0.405550 1.364970 0.547610 -3.668419 -4.569780 -8.374779 12.885898 -19.612270 57.204333 -2.874791 -16.633894 4.060715 -2.041753 -9.927539 -11.616913 -24.925959 11.123766 36.217347 10.809980 -4.436600 -4.304310 -1.980030 -13.225818 3.855360 23.199575 14.558220 -8.161462 105.028243 -3.858706 -7.891629 -4.779541 2.656054 1.028090 0.397030 -0.161030 0.446500 7.698576 12.799006 6.717175 1.297253 -25.888509 -14.965687 -125.964824 19.036558 -43.215170 2.056670 -1.759406 -0.730410 0.766290 0.613580 0.121980 
